<?xml version="1.0" standalone="no"?>
<!DOCTYPE svg PUBLIC "-//W3C//DTD SVG 20010904//EN"
 "http://www.w3.org/TR/2001/REC-SVG-20010904/DTD/svg10.dtd">
<svg version="1.0" xmlns="http://www.w3.org/2000/svg"
 width="750.000000pt" height="750.000000pt" viewBox="0 0 750.000000 750.000000"
 preserveAspectRatio="xMidYMid meet">
<metadata>
Created by potrace 1.14, written by Peter Selinger 2001-2017
</metadata>
<g transform="translate(0.000000,750.000000) scale(0.100000,-0.100000)"
fill="#000000" stroke="none">
<path d="M3608 6935 c-2 -1 -48 -5 -103 -9 -55 -3 -111 -8 -125 -11 -14 -2
-44 -6 -67 -9 -110 -15 -135 -19 -240 -42 -329 -71 -648 -197 -958 -379 -27
-16 -52 -32 -55 -35 -3 -3 -16 -11 -30 -18 -29 -15 -211 -145 -261 -185 -99
-82 -128 -107 -187 -162 -76 -71 -172 -169 -210 -216 -15 -18 -39 -45 -53 -59
-14 -15 -36 -43 -49 -61 -13 -19 -27 -36 -30 -39 -26 -20 -194 -269 -262 -387
-47 -83 -158 -312 -158 -327 0 -9 -4 -16 -10 -16 -5 0 -10 -7 -10 -15 0 -8
-11 -39 -24 -70 -14 -30 -22 -55 -19 -55 3 0 0 -7 -7 -15 -7 -8 -9 -15 -6 -15
4 0 2 -9 -4 -21 -32 -59 -150 -533 -136 -546 3 -3 1 -15 -4 -28 -5 -12 -11
-51 -15 -86 -3 -35 -9 -100 -13 -144 -14 -139 -7 -474 13 -610 3 -16 7 -50 10
-75 2 -25 7 -58 10 -75 27 -147 32 -169 40 -196 4 -11 8 -32 11 -47 2 -15 15
-65 29 -112 14 -47 27 -92 30 -100 7 -29 63 -178 83 -224 12 -25 19 -46 17
-46 -16 0 232 -457 275 -507 5 -7 10 -15 10 -18 0 -7 155 -215 192 -257 12
-15 34 -41 48 -59 33 -43 273 -282 340 -339 95 -80 234 -183 342 -255 73 -47
226 -135 237 -135 6 0 11 -4 11 -10 0 -5 3 -9 8 -8 4 0 57 -23 117 -51 61 -29
133 -62 160 -73 56 -22 242 -88 265 -94 8 -2 40 -11 70 -20 30 -9 73 -20 95
-25 22 -4 49 -10 60 -13 68 -16 167 -36 210 -41 28 -4 61 -8 75 -11 106 -19
611 -27 755 -11 132 14 261 36 375 62 36 9 76 18 90 20 80 17 402 127 428 148
6 5 12 6 12 3 0 -4 12 0 28 8 15 8 77 38 137 67 116 55 328 176 333 191 2 4 8
8 13 8 8 0 163 107 204 141 11 9 52 43 90 75 96 79 156 134 147 134 -4 0 5 8
19 18 24 15 95 89 206 212 39 44 176 218 200 256 7 10 31 45 53 77 22 32 40
62 40 66 0 5 6 13 13 19 6 6 30 46 52 89 22 43 43 80 46 83 6 5 67 130 111
230 11 25 24 54 29 65 12 28 32 78 35 90 1 6 18 57 37 115 20 58 41 125 47
150 6 25 14 52 17 60 3 8 7 22 8 30 1 8 7 35 13 60 6 25 13 59 16 75 3 17 8
41 11 55 3 14 8 45 11 70 3 25 7 56 10 70 14 86 19 186 19 430 -1 286 -4 341
-36 535 -6 39 -18 99 -26 135 -8 36 -17 76 -19 90 -3 14 -9 39 -14 55 -5 17
-17 55 -25 85 -9 30 -19 62 -22 70 -3 8 -7 22 -9 31 -2 9 -13 37 -24 63 -11
26 -20 52 -20 58 0 11 -44 114 -106 247 -24 51 -44 97 -44 102 0 5 -4 9 -10 9
-5 0 -10 4 -10 10 0 27 -219 377 -247 393 -7 4 -13 13 -13 18 0 6 -44 63 -97
127 -111 134 -299 324 -411 414 -42 34 -79 65 -82 68 -28 33 -351 244 -445
290 -27 14 -52 27 -55 30 -5 5 -81 43 -90 45 -3 0 -19 8 -36 17 -32 17 -249
107 -274 114 -8 2 -67 20 -130 39 -63 20 -122 38 -130 40 -107 25 -202 45
-230 50 -19 3 -46 7 -60 10 -36 7 -77 12 -140 20 -30 3 -73 9 -95 12 -40 5
-422 12 -427 8z"/>
</g>
</svg>
